<?xml version="1.0" encoding="UTF-8"?>
<svg id="Layer_1" data-name="Layer 1" xmlns="http://www.w3.org/2000/svg" viewBox="0 0 124.44 124.88">
  <defs>
    <style>
      .cls-1 {
        fill: #166666;
        stroke-width: 0px;
      }
    </style>
  </defs>
  <path class="cls-1" d="m120.01,85.34s.25-8.19-7.85-10.79c0,0-2.06-1.04-13.96,2.5,0,0-5.51,1.73,0-3.37,5.51-5.1,7.64-9.59,9.3-14.85s2.02-6.31,3.41-23.88c0,0,2.26-9.7,7.96,11.2,0,0-1.14-3.98,3.07,10.79,1.2,4.2,2.37,11.21,2.48,15.57.01.44.02.87.02,1.29,0,3.64-.81,7.26-2.51,10.51-.94,1.8-1.82,2.92-1.92,1.03Z"/>
  <path class="cls-1" d="m111.59,122.38s2.47-16.33-3.09-14.56c-4.57,1.46-.73.02-6.45,1.97-.72.25-2.08.68-2.92.99-1.43.52-4.22,1.69-9.36,3.33-4.38,1.4-8.93,2.29-13.54,2.5-1.87.09-3.55.04-4.25-.34-1.36-.74-.02-6.67,1.35-9.46,0,0,4.02-8.69,14.88-13.71,0,0,3.73-1.81,13.91-3.57,2.49-.43,5.07-.46,7.53.11,3.6.83,7.74,3.04,7.74,8.92v3.25c0,5.2-.33,10.4-.98,15.57h0c-.27,2.13-1.22,4.16-2.83,5.63-.99.9-1.9,1.21-1.98-.63Z"/>
  <g>
    <path class="cls-1" d="m11.41,19.06c.07-.07.15-.15.24-.24-.08.08-.16.16-.24.24Z"/>
    <path class="cls-1" d="m11.64,18.82c.24-.25.45-.47.64-.66-.22.23-.44.45-.64.66Z"/>
    <path class="cls-1" d="m11.18,19.29c.08-.08.15-.15.23-.23-.09.09-.17.17-.23.23Z"/>
    <path class="cls-1" d="m11.05,19.43s.05-.06.13-.13c-.05.05-.08.08-.13.13Z"/>
    <path class="cls-1" d="m13.04,17.38c.39-.4.52-.54,0,0h0Z"/>
    <path class="cls-1" d="m101.03.04c-2.7-.7-7.58,8.9-7.58,8.9l-3.34,6.03c-.64,1.08-4.96-.85-4.96-.85-3.39-1.21-6.66-2.72-10.16-3.56l-.9-.21c-.29-.07-.77-.18-1.31-.3-1.66-.37-3.34-.75-5.03-.99,0,0-1.11-.23-1.49-.3-1.14-.2-3.43-.52-4.57-.7-1.62-.26-6.48-1.05-6.48-1.05l-2.04-.23c-5.16-.59-10.37-.6-15.54-.04h-.06s-.07.01-.1.02c-.07,0-.14.01-.2.02-9.89,1.04-19.39,5.25-26,12.42l-.24.24c-3.35,3.44-5.69,10.17-6.72,14.75C2.39,42.84-.84,59.36.2,69.21c.09.9.19,1.83.3,2.78,2.25,20.49,13.17,25.68,14.74,26.65.26.16.16.1.26.16l12.75,7.19c1.52.86,2.45,2.44,2.44,4.15l-1.54,12.67s.02,5.92,6.3-2.25c3.12-4.06,7.18-8.39,10.45-11.7,5.41-5.48,8.72-12.78,8.61-20.39-.01-.96-.07-1.95-.18-2.95-.25-2.38-1.89-4.41-4.21-5.19-.12-.04-.24-.09-.36-.14l-4.61-1.7c-1.23-.55-2.72-1.29-3.89-1.95-.58-.33-1.3-.82-2.21-1.61-2.8-2.43-4.75-5.67-5.79-9.19l-.35-1.18c-1.96-6.69-1.97-13.79-.02-20.49l.03-.1c.08-.36.92-2.82,1.09-3.15.76-1.55,2.59-3.33,3.6-.05,1.42,4.63,3.36,9.09,6.58,12.77.18.21.37.42.57.64,3.07,3.41,7.02,5.99,11.36,7.61l.06.02c4.46,1.66,9.35,1.91,13.96.69l.09-.02c.8-.21,1.72-.54,2.68-.93,7.13-2.92,13.24-7.88,17.43-14.22,1.07-1.61,2.12-3.41,3.07-5.38,2.9-7.9,5.11-15.99,6.63-24.25.48-2.6,1.06-5.74,1.76-9.53.01-.08.02-.15.03-.22.15-1.51.49-7.57-.81-7.9Zm-31.17,54.03c-8.13,0-14.73-6.43-14.73-14.35s6.59-14.35,14.73-14.35,14.73,6.43,14.73,14.35-6.59,14.35-14.73,14.35Z"/>
    <path class="cls-1" d="m12.67,17.76c.14-.15.27-.28.37-.38-.11.11-.23.24-.37.38Z"/>
    <path class="cls-1" d="m12.28,18.16c.14-.14.27-.27.39-.4-.11.12-.25.26-.39.4Z"/>
  </g>
</svg>