<?xml version="1.0" encoding="utf-8"?>
<!-- Generator: Adobe Illustrator 27.9.0, SVG Export Plug-In . SVG Version: 6.00 Build 0)  -->
<svg version="1.0" id="Layer_1" xmlns="http://www.w3.org/2000/svg" xmlns:xlink="http://www.w3.org/1999/xlink" x="0px" y="0px"
	 viewBox="0 0 128 128" style="enable-background:new 0 0 128 128;" xml:space="preserve">
<g>
	<path d="M120.9,87.1c0,0,0.2-8.3-7.7-10.9c0,0-2-1-13.8,2.5c0,0-5.4,1.7,0-3.4c5.4-5.2,7.5-9.7,9.2-15c1.7-5.4,2-6.4,3.4-24.2
		c0,0,2.2-9.8,7.8,11.3c0,0-1.1-4,3,10.9c1.2,4.2,2.3,11.3,2.4,15.7c0,0.4,0,0.9,0,1.3c0,3.7-0.8,7.3-2.5,10.6
		C121.9,87.9,121,89.1,120.9,87.1z"/>
	<path d="M13.9,20.1c0.1-0.1,0.1-0.2,0.2-0.2C14.1,20,14,20,13.9,20.1z"/>
	<path d="M13.6,20.5c0,0,0.1-0.1,0.1-0.1C13.7,20.4,13.6,20.4,13.6,20.5z"/>
	<path d="M14.2,19.9c0.2-0.3,0.4-0.5,0.6-0.7C14.6,19.4,14.3,19.7,14.2,19.9z"/>
	<path d="M13.7,20.4c0.1-0.1,0.1-0.2,0.2-0.2C13.8,20.2,13.8,20.3,13.7,20.4z"/>
	<path d="M15.5,18.4C15.9,18,16.1,17.9,15.5,18.4L15.5,18.4z"/>
	<path d="M14.8,19.2c0.1-0.1,0.3-0.3,0.4-0.4C15.1,18.9,14.9,19.1,14.8,19.2z"/>
	<path d="M15.2,18.8c0.1-0.2,0.3-0.3,0.4-0.4C15.4,18.5,15.3,18.7,15.2,18.8z"/>
	<path d="M112.6,124.6c0,0,2.4-16.5-3-14.7c-4.5,1.5-0.7,0-6.4,2c-0.7,0.2-2,0.7-2.9,1c-1.4,0.5-4.2,1.7-9.2,3.4
		c-4.3,1.4-8.8,2.3-13.3,2.5c-1.8,0.1-3.5,0-4.2-0.3c-1.3-0.8,0-6.7,1.3-9.6c0,0,4-8.8,14.7-13.9c0,0,3.7-1.8,13.7-3.6
		c2.5-0.4,5-0.5,7.4,0.1c3.5,0.8,7.6,3.1,7.6,9v3.3c0,5.3-0.3,10.5-1,15.7v0c-0.3,2.2-1.2,4.2-2.8,5.7
		C113.6,126.2,112.7,126.5,112.6,124.6z"/>
	<path d="M102.2,0.9c-2.7-0.7-7.5,9-7.5,9L91.5,16c-0.6,1.1-4.9-0.9-4.9-0.9c-3.3-1.2-6.6-2.8-10-3.6l-0.9-0.2
		c-0.3-0.1-0.8-0.2-1.3-0.3c-1.6-0.4-3.3-0.8-5-1c0,0-1.1-0.2-1.5-0.3c-1.1-0.2-3.4-0.5-4.5-0.7c-1.6-0.3-6.4-1.1-6.4-1.1l-2-0.2
		c-5.1-0.6-10.2-0.6-15.3,0l-0.1,0c0,0-0.1,0-0.1,0c-0.1,0-0.1,0-0.2,0c-9.7,1-19.1,5.3-25.6,12.6l-0.2,0.2C10.3,24,8,30.8,7,35.4
		C5,44.2,1.9,60.9,2.9,70.8c0.1,0.9,0.2,1.8,0.3,2.8c2.2,20.7,13,26,14.5,26.9c0.3,0.2,0.2,0.1,0.3,0.2l12.6,7.3
		c1.5,0.9,2.4,2.5,2.4,4.2L31.4,125c0,0,0,6,6.2-2.3c3.1-4.1,7.1-8.5,10.3-11.8c5.3-5.5,8.6-12.9,8.5-20.6c0-1-0.1-2-0.2-3
		c-0.3-2.4-1.9-4.5-4.1-5.3c-0.1,0-0.2-0.1-0.4-0.1l-4.5-1.7c-1.2-0.6-2.7-1.3-3.8-2c-0.6-0.3-1.3-0.8-2.2-1.6
		c-2.8-2.5-4.7-5.7-5.7-9.3l-0.3-1.2c-1.9-6.8-1.9-13.9,0-20.7l0-0.1c0.1-0.4,0.9-2.8,1.1-3.2c0.8-1.6,2.6-3.4,3.5-0.1
		c1.4,4.7,3.3,9.2,6.5,12.9c0.2,0.2,0.4,0.4,0.6,0.6c3,3.4,6.9,6.1,11.2,7.7l0.1,0c4.4,1.7,9.2,1.9,13.8,0.7l0.1,0
		c0.8-0.2,1.7-0.5,2.6-0.9c7-3,13-8,17.2-14.4c1.1-1.6,2.1-3.4,3-5.4c2.9-8,5-16.2,6.5-24.5c0.5-2.6,1-5.8,1.7-9.6
		c0-0.1,0-0.1,0-0.2C103.2,7.3,103.5,1.2,102.2,0.9z M71.7,56.5c-8.5,0-15.4-6.9-15.4-15.4s6.9-15.4,15.4-15.4
		c8.5,0,15.4,6.9,15.4,15.4S80.2,56.5,71.7,56.5z"/>
</g>
</svg>
