<?xml version="1.0" encoding="utf-8"?>
<!-- Generator: Adobe Illustrator 27.9.0, SVG Export Plug-In . SVG Version: 6.00 Build 0)  -->
<svg version="1.1" id="Layer_1" xmlns="http://www.w3.org/2000/svg" xmlns:xlink="http://www.w3.org/1999/xlink" x="0px" y="0px"
	 viewBox="0 0 512 512" style="enable-background:new 0 0 512 512;" xml:space="preserve">
<g>
	<path d="M483.8,349.8c0,0,1-33.1-30.9-43.7c0,0-8.1-4.2-55,10.1c0,0-21.7,7,0-13.6c21.7-20.6,30.1-38.8,36.7-60.1
		c6.7-21.8,8-25.5,13.5-96.6c0,0,8.9-39.2,31.4,45.3c0,0-4.5-16.1,12.1,43.7c4.7,17,9.3,45.3,9.8,63c0,1.8,0.1,3.5,0.1,5.2
		c0,14.7-3.2,29.4-9.9,42.5C487.7,352.9,484.2,357.5,483.8,349.8z"/>
	<path d="M55.7,81.7c0.3-0.3,0.6-0.6,0.9-1C56.3,81.1,56,81.4,55.7,81.7z"/>
	<path d="M54.3,83.2c0,0,0.2-0.2,0.5-0.5C54.6,82.9,54.5,83,54.3,83.2z"/>
	<path d="M56.6,80.7c1-1,1.8-1.9,2.5-2.7C58.3,79,57.4,79.9,56.6,80.7z"/>
	<path d="M54.8,82.7c0.3-0.3,0.6-0.6,0.9-0.9C55.3,82.1,55,82.4,54.8,82.7z"/>
	<path d="M62.1,74.9C63.7,73.3,64.2,72.8,62.1,74.9L62.1,74.9z"/>
	<path d="M59.1,78.1c0.5-0.6,1.1-1.1,1.5-1.6C60.2,76.9,59.7,77.5,59.1,78.1z"/>
	<path d="M60.7,76.5c0.6-0.6,1.1-1.1,1.5-1.5C61.7,75.4,61.2,75.9,60.7,76.5z"/>
	<path d="M450.6,499.7c0,0,9.7-66.1-12.2-58.9c-18,5.9-2.9,0.1-25.4,8c-2.8,1-8.2,2.8-11.5,4c-5.7,2.1-16.6,6.8-36.9,13.5
		c-17.3,5.6-35.2,9.3-53.4,10.1c-7.4,0.3-14,0.2-16.7-1.4c-5.4-3-0.1-27,5.3-38.2c0,0,15.9-35.2,58.7-55.4c0,0,14.7-7.3,54.8-14.4
		c9.8-1.7,20-1.9,29.7,0.4c14.2,3.4,30.5,12.3,30.5,36.1v13.1c0,21-1.3,42.1-3.9,63v0c-1.1,8.6-4.8,16.8-11.2,22.8
		C454.5,505.9,450.9,507.1,450.6,499.7z"/>
	<path d="M409,4.8c-10.7-2.8-29.9,36-29.9,36l-13.2,24.4c-2.5,4.4-19.5-3.4-19.5-3.4c-13.3-4.9-26.2-11-40-14.4l-3.5-0.9
		c-1.1-0.3-3-0.7-5.1-1.2c-6.6-1.5-13.2-3-19.8-4c0,0-4.4-0.9-5.9-1.2c-4.5-0.8-13.5-2.1-18-2.8c-6.4-1-25.5-4.2-25.5-4.2l-8.1-0.9
		c-20.3-2.4-40.9-2.4-61.2-0.2l-0.2,0c-0.1,0-0.3,0-0.4,0c-0.3,0-0.5,0.1-0.8,0.1c-39,4.2-76.4,21.2-102.5,50.2l-1,1
		c-13.2,13.9-22.4,41.1-26.5,59.7c-7.6,35.1-20.4,101.9-16.3,141.7c0.4,3.6,0.8,7.4,1.2,11.3c8.9,82.9,51.9,103.9,58.1,107.8
		c1,0.6,0.6,0.4,1,0.6l50.3,29.1c6,3.5,9.7,9.9,9.6,16.8l-6.1,51.2c0,0,0.1,23.9,24.9-9.1c12.3-16.4,28.3-33.9,41.2-47.3
		c21.3-22.2,34.4-51.7,33.9-82.5c-0.1-3.9-0.3-7.9-0.7-11.9c-1-9.6-7.5-17.8-16.6-21c-0.5-0.2-1-0.4-1.4-0.6l-18.2-6.9
		c-4.9-2.2-10.7-5.2-15.3-7.9c-2.3-1.3-5.1-3.3-8.7-6.5c-11-9.8-18.7-22.9-22.8-37.2l-1.4-4.8c-7.7-27.1-7.8-55.8-0.1-82.9l0.1-0.4
		c0.3-1.5,3.6-11.4,4.3-12.7c3-6.3,10.2-13.5,14.2-0.2c5.6,18.7,13.3,36.8,26,51.6c0.7,0.8,1.5,1.7,2.2,2.6
		c12.1,13.8,27.7,24.2,44.8,30.8l0.2,0.1c17.6,6.7,36.8,7.7,55,2.8l0.4-0.1c3.2-0.9,6.8-2.2,10.6-3.8c28.1-11.8,52.2-31.9,68.7-57.5
		c4.2-6.5,8.3-13.8,12.1-21.8c11.4-32,20.1-64.7,26.1-98.1c1.9-10.5,4.2-23.2,6.9-38.6c0.1-0.3,0.1-0.6,0.1-0.9
		C412.8,30.6,414.1,6.1,409,4.8z M286.8,227.3c-34,0-61.5-27.5-61.5-61.5s27.5-61.5,61.5-61.5s61.5,27.5,61.5,61.5
		S320.7,227.3,286.8,227.3z"/>
</g>
</svg>
