<?xml version="1.0" encoding="utf-8"?>
<!-- Generator: Adobe Illustrator 27.9.0, SVG Export Plug-In . SVG Version: 6.00 Build 0)  -->
<svg version="1.0" id="Layer_1" xmlns="http://www.w3.org/2000/svg" xmlns:xlink="http://www.w3.org/1999/xlink" x="0px" y="0px"
	 viewBox="0 0 64 64" style="enable-background:new 0 0 64 64;" xml:space="preserve">
<g>
	<path d="M60.3,43.5c0,0,0.1-4.1-3.8-5.4c0,0-1-0.5-6.8,1.3c0,0-2.7,0.9,0-1.7c2.7-2.6,3.7-4.8,4.6-7.5c0.8-2.7,1-3.2,1.7-12
		c0,0,1.1-4.9,3.9,5.6c0,0-0.6-2,1.5,5.4c0.6,2.1,1.2,5.6,1.2,7.8c0,0.2,0,0.4,0,0.7c0,1.8-0.4,3.6-1.2,5.3
		C60.8,43.9,60.4,44.5,60.3,43.5z"/>
	<path d="M7.1,10.2c0,0,0.1-0.1,0.1-0.1C7.2,10.1,7.1,10.2,7.1,10.2z"/>
	<path d="M6.9,10.4C6.9,10.4,7,10.4,6.9,10.4C7,10.3,7,10.4,6.9,10.4z"/>
	<path d="M7.2,10.1c0.1-0.1,0.2-0.2,0.3-0.3C7.4,9.9,7.3,10,7.2,10.1z"/>
	<path d="M7,10.3c0,0,0.1-0.1,0.1-0.1C7.1,10.2,7,10.3,7,10.3z"/>
	<path d="M7.9,9.3C8.1,9.1,8.2,9.1,7.9,9.3L7.9,9.3z"/>
	<path d="M7.5,9.7c0.1-0.1,0.1-0.1,0.2-0.2C7.7,9.6,7.6,9.7,7.5,9.7z"/>
	<path d="M7.7,9.5c0.1-0.1,0.1-0.1,0.2-0.2C7.9,9.4,7.8,9.5,7.7,9.5z"/>
	<path d="M56.2,62.1c0,0,1.2-8.2-1.5-7.3c-2.2,0.7-0.4,0-3.2,1c-0.4,0.1-1,0.3-1.4,0.5c-0.7,0.3-2.1,0.8-4.6,1.7
		c-2.1,0.7-4.4,1.1-6.6,1.3c-0.9,0-1.7,0-2.1-0.2c-0.7-0.4,0-3.4,0.7-4.8c0,0,2-4.4,7.3-6.9c0,0,1.8-0.9,6.8-1.8
		c1.2-0.2,2.5-0.2,3.7,0.1c1.8,0.4,3.8,1.5,3.8,4.5v1.6c0,2.6-0.2,5.2-0.5,7.8v0c-0.1,1.1-0.6,2.1-1.4,2.8
		C56.7,62.9,56.2,63.1,56.2,62.1z"/>
	<path d="M51,0.6c-1.3-0.3-3.7,4.5-3.7,4.5l-1.6,3c-0.3,0.5-2.4-0.4-2.4-0.4c-1.7-0.6-3.3-1.4-5-1.8l-0.4-0.1
		c-0.1,0-0.4-0.1-0.6-0.2c-0.8-0.2-1.6-0.4-2.5-0.5c0,0-0.5-0.1-0.7-0.2c-0.6-0.1-1.7-0.3-2.2-0.4c-0.8-0.1-3.2-0.5-3.2-0.5l-1-0.1
		C25,3.7,22.5,3.7,20,4l0,0c0,0,0,0-0.1,0c0,0-0.1,0-0.1,0c-4.8,0.5-9.5,2.6-12.7,6.2l-0.1,0.1c-1.6,1.7-2.8,5.1-3.3,7.4
		c-0.9,4.4-2.5,12.7-2,17.6c0,0.5,0.1,0.9,0.1,1.4C2.9,47.1,8.2,49.7,9,50.2c0.1,0.1,0.1,0.1,0.1,0.1l6.2,3.6
		c0.7,0.4,1.2,1.2,1.2,2.1l-0.8,6.4c0,0,0,3,3.1-1.1c1.5-2,3.5-4.2,5.1-5.9c2.7-2.8,4.3-6.4,4.2-10.2c0-0.5,0-1-0.1-1.5
		c-0.1-1.2-0.9-2.2-2.1-2.6c-0.1,0-0.1,0-0.2-0.1l-2.3-0.9c-0.6-0.3-1.3-0.6-1.9-1c-0.3-0.2-0.6-0.4-1.1-0.8
		c-1.4-1.2-2.3-2.9-2.8-4.6l-0.2-0.6c-1-3.4-1-6.9,0-10.3l0,0c0-0.2,0.5-1.4,0.5-1.6c0.4-0.8,1.3-1.7,1.8,0c0.7,2.3,1.6,4.6,3.2,6.4
		c0.1,0.1,0.2,0.2,0.3,0.3c1.5,1.7,3.4,3,5.6,3.8l0,0c2.2,0.8,4.6,1,6.8,0.3l0,0c0.4-0.1,0.8-0.3,1.3-0.5c3.5-1.5,6.5-4,8.5-7.1
		c0.5-0.8,1-1.7,1.5-2.7c1.4-4,2.5-8,3.2-12.2c0.2-1.3,0.5-2.9,0.9-4.8c0,0,0-0.1,0-0.1C51.5,3.8,51.6,0.8,51,0.6z M35.8,28.3
		c-4.2,0-7.6-3.4-7.6-7.6s3.4-7.6,7.6-7.6s7.6,3.4,7.6,7.6S40,28.3,35.8,28.3z"/>
</g>
</svg>
