<?xml version="1.0" encoding="UTF-8"?>
<svg id="Layer_1" data-name="Layer 1" xmlns="http://www.w3.org/2000/svg" viewBox="0 0 487.78 502.35">
  <defs>
    <style>
      .cls-1 {
        fill: #fff;
        stroke-width: 0px;
      }
    </style>
  </defs>
  <path class="cls-1" d="m470.4,343.27s.99-32.95-30.77-43.41c0,0-8.07-4.17-54.73,10.04,0,0-21.59,6.95,0-13.57,21.59-20.52,29.93-38.58,36.45-59.72,6.67-21.63,7.93-25.4,13.38-96.06,0,0,8.87-39.01,31.2,45.07,0,0-4.45-16.03,12.05,43.42,4.69,16.9,9.28,45.08,9.73,62.62.05,1.76.07,3.51.07,5.21-.02,14.66-3.19,29.2-9.84,42.26-3.69,7.25-7.15,11.76-7.54,4.15Z"/>
  <path class="cls-1" d="m437.38,492.29s9.67-65.71-12.12-58.58c-17.9,5.85-2.84.07-25.28,7.93-2.81.99-8.14,2.75-11.46,3.98-5.62,2.09-16.54,6.8-36.7,13.39-17.18,5.61-35.02,9.2-53.07,10.05-7.34.34-13.93.16-16.65-1.37-5.32-2.99-.09-26.84,5.3-38.03,0,0,15.76-34.97,58.32-55.13,0,0,14.61-7.28,54.52-14.37,9.76-1.73,19.87-1.85,29.52.44,14.11,3.35,30.34,12.23,30.34,35.9v13.07c0,20.93-1.28,41.84-3.85,62.62h0c-1.06,8.58-4.79,16.74-11.1,22.65-3.86,3.62-7.46,4.87-7.78-2.52Z"/>
  <g>
    <path class="cls-1" d="m44.7,76.68c.28-.3.59-.62.93-.98-.29.31-.61.65-.93.98Z"/>
    <path class="cls-1" d="m45.63,75.7c.95-1,1.78-1.88,2.5-2.64-.87.92-1.73,1.83-2.5,2.64Z"/>
    <path class="cls-1" d="m43.82,77.61c.32-.34.58-.62.88-.93-.36.38-.65.69-.88.93Z"/>
    <path class="cls-1" d="m43.31,78.15s.22-.23.51-.54c-.19.2-.32.33-.51.54Z"/>
    <path class="cls-1" d="m51.12,69.91c1.51-1.6,2.05-2.16,0,0h0Z"/>
    <path class="cls-1" d="m396.02.15c-10.59-2.8-29.73,35.79-29.73,35.79l-13.09,24.26c-2.49,4.35-19.43-3.41-19.43-3.41-13.27-4.88-26.09-10.94-39.82-14.32l-3.51-.86c-1.13-.28-3.01-.72-5.12-1.2-6.51-1.5-13.1-3.02-19.71-3.98,0,0-4.36-.94-5.82-1.21-4.46-.81-13.43-2.11-17.9-2.83-6.35-1.03-25.39-4.22-25.39-4.22l-8.01-.94c-20.23-2.38-40.66-2.43-60.9-.15l-.23.03c-.14.02-.27.03-.41.04-.27.03-.53.06-.8.09-38.75,4.17-76.01,21.12-101.9,49.95l-.95.97c-13.14,13.85-22.32,40.91-26.33,59.32C9.38,172.34-3.28,238.77.78,278.42c.37,3.62.76,7.35,1.17,11.19,8.81,82.42,51.63,103.31,57.77,107.18,1,.63.63.42,1,.63l49.99,28.94c5.95,3.45,9.6,9.81,9.56,16.69l-6.04,50.96s.09,23.81,24.71-9.04c12.23-16.33,28.13-33.74,40.98-47.08,21.22-22.04,34.17-51.43,33.74-82.02-.05-3.87-.27-7.84-.69-11.86-1-9.56-7.42-17.72-16.5-20.88-.48-.17-.95-.36-1.42-.57l-18.05-6.83c-4.83-2.23-10.65-5.18-15.26-7.83-2.28-1.32-5.08-3.28-8.65-6.47-10.98-9.79-18.64-22.82-22.68-36.96l-1.36-4.76c-7.69-26.93-7.72-55.46-.08-82.41l.11-.38c.32-1.46,3.61-11.33,4.26-12.68,3-6.25,10.15-13.41,14.09-.21,5.57,18.62,13.19,36.58,25.81,51.36.72.84,1.46,1.7,2.22,2.57,12.03,13.71,27.5,24.09,44.53,30.61l.24.09c17.48,6.7,36.63,7.67,54.7,2.77l.36-.1c3.14-.85,6.73-2.17,10.5-3.75,27.97-11.74,51.89-31.71,68.34-57.19,4.19-6.49,8.3-13.72,12.03-21.65,11.35-31.78,20.03-64.32,25.99-97.54,1.88-10.45,4.14-23.08,6.88-38.34.06-.31.09-.59.12-.9.59-6.07,1.9-30.46-3.17-31.79Zm-122.19,217.35c-31.88,0-57.73-25.85-57.73-57.73s25.85-57.73,57.73-57.73,57.73,25.85,57.73,57.73-25.84,57.73-57.73,57.73Z"/>
    <path class="cls-1" d="m49.68,71.44c.57-.6,1.07-1.13,1.45-1.52-.42.44-.91.96-1.45,1.52Z"/>
    <path class="cls-1" d="m48.14,73.06c.53-.56,1.05-1.1,1.54-1.62-.44.47-.97,1.03-1.54,1.62Z"/>
  </g>
</svg>